# xmcd CD database file
#
# Track frame offsets:
#	150
#	16873
#	46096
#	63841
#	89789
#	105590
#	138978
#	166601
#	189496
#	218042
#
# Disc length: 3129 seconds
#
# Revision: 0
# Processed by: cddbd v1.5.2PL0 Copyright (c) Steve Scherf et al.
# Submitted via: CDex 1.70beta2
#
DISCID=7a0c370a
DTITLE=Jimmy Amadie - Savoring Every Note
DYEAR=1997
DGENRE=Jazz
TTITLE0=Just Friends
TTITLE1=Your My Love Of Life
TTITLE2=Swinging Prez
TTITLE3=Like Someone In Love
TTITLE4=Summertime
TTITLE5=The Gospel As I Know It
TTITLE6=Tenderely
TTITLE7=If I were A Bell
TTITLE8=You Are There
TTITLE9=Blue Bossa
EXTD=YEAR: 1997
EXTT0=
EXTT1=
EXTT2=
EXTT3=
EXTT4=
EXTT5=
EXTT6=
EXTT7=
EXTT8=
EXTT9=
PLAYORDER=
